<?xml version="1.0" encoding="utf-8"?>
<!-- Generator: Adobe Illustrator 21.0.0, SVG Export Plug-In . SVG Version: 6.00 Build 0)  -->
<svg version="1.1" id="图层_1" xmlns="http://www.w3.org/2000/svg" xmlns:xlink="http://www.w3.org/1999/xlink" x="0px" y="0px"
	 viewBox="0 0 107 79" style="enable-background:new 0 0 107 79;" xml:space="preserve">
<style type="text/css">
	.st0{fill:#D9D9D9;}
</style>
<g>
	<g>
		<g>
			<path class="st0" d="M94.4,71.6H16.6c-0.4,0-0.8-0.2-1-0.4L7,62.9c-0.3-0.3-0.5-0.7-0.5-1.1S6.7,61,7,60.7l7.1-6L7,48
				c-0.3-0.3-0.5-0.7-0.5-1.1c0-0.4,0.2-0.8,0.5-1.1l7.2-6L7,32.9c-0.3-0.3-0.5-0.7-0.5-1.1c0-0.4,0.2-0.8,0.5-1.1l7.1-6L7,18.1
				c-0.3-0.3-0.5-0.7-0.5-1.1s0.2-0.9,0.5-1.2l8.6-7.5c0.3-0.2,0.6-0.4,1-0.4h77.8c4,0,7.3,3.3,7.3,7.3V27c0,0.7-0.5,1.4-1.3,1.5
				c-5.6,0.9-9.6,5.6-9.6,11.2s4,10.4,9.6,11.2c0.7,0.1,1.3,0.7,1.3,1.5v11.8C101.6,68.3,98.4,71.6,94.4,71.6z M17.2,68.6h77.2
				c2.3,0,4.3-1.9,4.3-4.3V53.7c-6.4-1.6-10.9-7.2-10.9-13.9s4.5-12.4,10.9-13.9V15.2c0-2.3-1.9-4.3-4.3-4.3H17.2l-6.9,6l7.2,6.7
				c0.3,0.3,0.5,0.7,0.5,1.1s-0.2,0.8-0.5,1.1l-7.1,6l7.2,6.8c0.3,0.3,0.5,0.7,0.5,1.1c0,0.4-0.2,0.8-0.5,1.1l-7.2,6l7.2,6.7
				c0.3,0.3,0.5,0.7,0.5,1.1c0,0.4-0.2,0.8-0.5,1.1l-7.2,6L17.2,68.6z"/>
		</g>
	</g>
	<g>
		<g>
			<path class="st0" d="M33.7,14.9c-0.8,0-1.5-0.7-1.5-1.5V9.5c0-0.8,0.7-1.5,1.5-1.5s1.5,0.7,1.5,1.5v3.9
				C35.2,14.2,34.5,14.9,33.7,14.9z"/>
		</g>
	</g>
	<g>
		<g>
			<path class="st0" d="M33.7,63.9c-0.8,0-1.5-0.7-1.5-1.5v-0.8c0-0.8,0.7-1.5,1.5-1.5s1.5,0.7,1.5,1.5v0.8
				C35.2,63.3,34.5,63.9,33.7,63.9z M33.7,56.4c-0.8,0-1.5-0.7-1.5-1.5v-6.8c0-0.8,0.7-1.5,1.5-1.5s1.5,0.7,1.5,1.5v6.8
				C35.2,55.7,34.5,56.4,33.7,56.4z M33.7,42.8c-0.8,0-1.5-0.7-1.5-1.5v-6.8c0-0.8,0.7-1.5,1.5-1.5s1.5,0.7,1.5,1.5v6.8
				C35.2,42.1,34.5,42.8,33.7,42.8z M33.7,29.2c-0.8,0-1.5-0.7-1.5-1.5v-6.8c0-0.8,0.7-1.5,1.5-1.5s1.5,0.7,1.5,1.5v6.8
				C35.2,28.5,34.5,29.2,33.7,29.2z"/>
		</g>
	</g>
	<g>
		<g>
			<path class="st0" d="M33.7,71.6c-0.8,0-1.5-0.7-1.5-1.5v-3.9c0-0.8,0.7-1.5,1.5-1.5s1.5,0.7,1.5,1.5v3.9
				C35.2,70.9,34.5,71.6,33.7,71.6z"/>
		</g>
	</g>
</g>
</svg>
