<?xml version="1.0" encoding="utf-8"?>
<!-- Generator: Adobe Illustrator 21.0.0, SVG Export Plug-In . SVG Version: 6.00 Build 0)  -->
<svg version="1.1" id="图层_1" xmlns="http://www.w3.org/2000/svg" xmlns:xlink="http://www.w3.org/1999/xlink" x="0px" y="0px"
	 viewBox="0 0 107 79" style="enable-background:new 0 0 107 79;" xml:space="preserve">
<style type="text/css">
	.st0{fill:#D9D9D9;}
</style>
<g>
	<g>
		<g>
			<path class="st0" d="M84.4,68.6H76c-0.3,0-0.5-0.2-0.5-0.5s0.2-0.5,0.5-0.5h8.4c2.3,0,4.2-1.9,4.2-4.2v-7.8
				c0-0.3,0.2-0.5,0.5-0.5s0.5,0.2,0.5,0.5v7.8C89.6,66.2,87.3,68.6,84.4,68.6z"/>
		</g>
	</g>
	<g>
		<g>
			<path class="st0" d="M71.6,68.6h-2.1c-0.3,0-0.5-0.2-0.5-0.5s0.2-0.5,0.5-0.5h2.1c0.3,0,0.5,0.2,0.5,0.5S71.9,68.6,71.6,68.6z"/>
		</g>
	</g>
	<g>
		<g>
			<path class="st0" d="M86.3,78.3H19.6c-7.6,0-13.7-6.1-13.7-13.7V20.7C5.9,13.2,12.1,7,19.6,7h8.5v3h-8.5
				c-5.9,0-10.7,4.8-10.7,10.7v43.8c0,5.9,4.8,10.7,10.7,10.7h66.7c5.9,0,10.7-4.8,10.7-10.7V20.7C97,14.8,92.2,10,86.3,10h-8.8V7
				h8.8c7.6,0,13.7,6.1,13.7,13.7v43.8C100,72.1,93.9,78.3,86.3,78.3z"/>
		</g>
	</g>
	<g>
		<g>
			<rect x="35" y="7" class="st0" width="35.5" height="3"/>
		</g>
	</g>
	<g>
		<g>
			<path class="st0" d="M74,17.2c-2.8,0-5-2.2-5-4.9V4.7c0-2.7,2.3-4.9,5-4.9c2.8,0,5,2.2,5,4.9v7.6C79.1,15,76.8,17.2,74,17.2z
				 M74,2.9c-1.1,0-2,0.8-2,1.9v7.6c0,1,0.9,1.9,2,1.9c1.1,0,2-0.8,2-1.9V4.7C76.1,3.7,75.2,2.9,74,2.9z"/>
		</g>
	</g>
	<g>
		<g>
			<path class="st0" d="M31.4,17.2c-2.8,0-5-2.2-5-4.9V4.7c0-2.7,2.3-4.9,5-4.9s5,2.2,5,4.9v7.6C36.5,15,34.2,17.2,31.4,17.2z
				 M31.4,2.9c-1.1,0-2,0.8-2,1.9v7.6c0,1,0.9,1.9,2,1.9s2-0.8,2-1.9V4.7C33.5,3.7,32.6,2.9,31.4,2.9z"/>
		</g>
	</g>
	<g>
		<g>
			<path class="st0" d="M28.7,78.3c-0.1,0-0.2,0-0.3,0c-3.3-0.7-5.7-2.3-7-4.8c-2-3.7-1.2-8.5-0.4-11.3c-11.8,1.7-14.8-5-14.9-5.3
				c-0.3-0.8,0-1.6,0.8-2c0.8-0.3,1.6,0,2,0.8c0.1,0.3,2.8,5.6,14.1,3.1c0.5-0.1,1.1,0.1,1.5,0.5c0.4,0.4,0.4,1,0.2,1.5
				c0,0.1-2.9,7-0.6,11.3c0.9,1.7,2.5,2.8,4.9,3.3c0.8,0.2,1.3,0.9,1.2,1.8C30,77.8,29.4,78.3,28.7,78.3z"/>
		</g>
	</g>
	<g>
		<g>
			<rect x="7.6" y="30.2" class="st0" width="90.7" height="3"/>
		</g>
	</g>
</g>
</svg>
