<?xml version="1.0" encoding="utf-8"?>
<!-- Generator: Adobe Illustrator 21.0.0, SVG Export Plug-In . SVG Version: 6.00 Build 0)  -->
<svg version="1.1" id="图层_1" xmlns="http://www.w3.org/2000/svg" xmlns:xlink="http://www.w3.org/1999/xlink" x="0px" y="0px"
	 viewBox="0 0 61.8 106.8" style="enable-background:new 0 0 61.8 106.8;" xml:space="preserve">
<style type="text/css">
	.st0{fill:#D9D9D9;}
</style>
<g>
	<g>
		<g>
			<path class="st0" d="M42.8,83.1L40,82l0.7-1.6c2-5,8.7-21.7,10.4-27.9C59.2,24,38.1,7,37.9,6.9l-0.1-0.1c0,0-2.7-2.5-5.4-3.4
				l-0.2-0.1c-0.4-0.2-0.8-0.3-1.3-0.2h-0.1h-0.1c-0.5,0-0.9,0.1-1.3,0.2l-0.2,0.1c-2.7,0.9-5.3,3.4-5.4,3.4l-0.1,0.1
				C22.8,7.6,2.4,24.1,10.5,52.5c1.8,6.2,8.4,22.9,10.4,27.9l-2.8,1.1c-2.6-6.4-8.8-22-10.5-28.2C-0.8,23.6,20.5,5.6,21.8,4.5
				c0.4-0.4,3.2-2.9,6.3-4C28.9,0.1,29.8,0,30.7,0c0.9,0,1.8,0.1,2.6,0.5c3.1,1.1,5.9,3.6,6.3,4c1.3,1.1,22.6,19.1,14.2,48.8
				c-1.7,6.2-8,21.8-10.5,28.2L42.8,83.1z"/>
		</g>
	</g>
	<g>
		<g>
			<path class="st0" d="M59.1,81.8c-1.3,0-2.7-0.6-3.9-1.3c-6.2-3.3-10.8-5.9-10.9-5.9l1.5-2.6c0,0,4.6,2.6,10.8,5.9
				c1.1,0.6,1.8,0.8,2.1,0.9c-0.1-0.2-0.1-0.5-0.2-0.7V78l-8-22.6l2.8-1l8,22.5c0.3,0.6,1.1,2.9-0.3,4.2
				C60.4,81.6,59.8,81.8,59.1,81.8z"/>
		</g>
	</g>
	<g>
		<g>
			<path class="st0" d="M2.7,81.8c-0.7,0-1.3-0.2-1.9-0.7c-1.4-1.3-0.5-3.6-0.3-4.2l8-22.5l2.8,1l-8,22.7c-0.1,0.2-0.2,0.5-0.2,0.7
				c0.4-0.1,1.1-0.3,2.1-0.9c6.2-3.2,10.7-5.8,10.8-5.9l1.5,2.6c0,0-4.6,2.7-10.9,5.9C5.4,81.1,4,81.8,2.7,81.8z"/>
		</g>
	</g>
	<g>
		<g>
			<path class="st0" d="M30.9,44.9c-6.4,0-11.6-5.2-11.6-11.6s5.2-11.6,11.6-11.6c6.4,0,11.6,5.2,11.6,11.6S37.3,44.9,30.9,44.9z
				 M30.9,24.8c-4.7,0-8.6,3.8-8.6,8.6c0,4.7,3.8,8.6,8.6,8.6c4.7,0,8.6-3.8,8.6-8.6S35.6,24.8,30.9,24.8z"/>
		</g>
	</g>
	<g>
		<g>
			<path class="st0" d="M35,38.1c-0.1,0-0.3-0.1-0.4-0.2c-0.2-0.2-0.1-0.5,0.1-0.7c0.7-0.6,1.3-1.4,1.6-2.2c0.1-0.3,0.4-0.4,0.6-0.3
				c0.3,0.1,0.4,0.4,0.3,0.6c-0.4,1-1,2-1.9,2.7C35.2,38.1,35.1,38.1,35,38.1z"/>
		</g>
	</g>
	<g>
		<g>
			<path class="st0" d="M37,33.9c-0.3,0-0.5-0.2-0.5-0.5c0-2.4-1.7-4.4-4-4.9c-0.3-0.1-0.4-0.3-0.4-0.6c0.1-0.3,0.3-0.4,0.6-0.4
				c2.8,0.6,4.8,3,4.8,5.9C37.5,33.6,37.3,33.9,37,33.9z"/>
		</g>
	</g>
	<g>
		<g>
			<path class="st0" d="M31,14.1c-7.1,0-12.2-3.5-12.5-3.7l1.7-2.5l-0.9,1.2l0.9-1.2c0.4,0.3,10.3,6.9,21.4,0l1.6,2.5
				C38.9,13.1,34.7,14.1,31,14.1z"/>
		</g>
	</g>
	<g>
		<g>
			<path class="st0" d="M36.4,89.9l-0.2-3c4.1-0.3,5.9-0.7,6.3-0.9l0.2-0.1c0.7-0.3,1.2-0.9,1.2-1.7c0-0.8-1.4-1.5-2.5-1.9
				c-2-0.8-6.8-1.6-10.4-1.6h-0.3c-3.6,0-8.4,0.8-10.4,1.6c-1.1,0.5-2.5,1.2-2.5,1.9c0,0.8,0.6,1.5,1.4,1.7l0.2,0.1
				c0.6,0.3,2.6,0.7,6.1,0.9l-0.2,3c-2.4-0.1-5.5-0.5-7-1.1c-2.1-0.6-3.5-2.5-3.5-4.6c0-2.8,3.1-4.1,4.4-4.7c2.3-1,7.5-1.8,11.5-1.9
				h0.4c4,0,9.2,0.9,11.5,1.9c1.3,0.5,4.3,1.8,4.3,4.7c0,2-1.2,3.7-3.1,4.4C42.4,89.4,39,89.7,36.4,89.9z"/>
		</g>
	</g>
	<g>
		<g>
			<path class="st0" d="M30.9,106.8L30.9,106.8c-1.7-0.1-2.7-1.5-2.9-1.8c-3.2-4.6-4.1-11.4-4.3-14.1c0-0.2-0.1-0.5-0.1-0.8
				c0-3.8,3.3-6.9,7.3-6.9s7.3,3.1,7.3,6.9c0,0,0,0.1,0,0.4c0,0.1,0,0.3,0,0.4c-0.2,2.1-0.9,9.3-4.3,14.1c-0.2,0.3-1.2,1.7-2.8,1.7
				L30.9,106.8z M30.9,103.8L30.9,103.8c0.1,0,0.4-0.3,0.5-0.4c2.9-4.2,3.6-10.8,3.8-12.7c0-0.1,0-0.2,0-0.3v-0.2
				c0-2.1-1.9-3.9-4.3-3.9s-4.3,1.8-4.3,3.9c0,0.2,0,0.3,0,0.5c0.2,2,0.9,8.6,3.8,12.7C30.6,103.5,30.8,103.7,30.9,103.8z"/>
		</g>
	</g>
</g>
</svg>
