<?xml version="1.0" encoding="utf-8"?>
<!-- Generator: Adobe Illustrator 21.0.0, SVG Export Plug-In . SVG Version: 6.00 Build 0)  -->
<svg version="1.1" id="图层_1" xmlns="http://www.w3.org/2000/svg" xmlns:xlink="http://www.w3.org/1999/xlink" x="0px" y="0px"
	 viewBox="0 0 107 79" style="enable-background:new 0 0 107 79;" xml:space="preserve">
<style type="text/css">
	.st0{fill:#D9D9D9;}
</style>
<g>
	<g>
		<g>
			<path class="st0" d="M25,63.3c-13.1,0-23.8-10.7-23.8-23.8c0-13.1,10.7-23.8,23.8-23.8s23.8,10.7,23.8,23.8
				C48.9,52.6,38.2,63.3,25,63.3z M25,18.7C13.6,18.7,4.2,28,4.2,39.5S13.6,60.3,25,60.3c11.5,0,20.8-9.3,20.8-20.8
				S36.5,18.7,25,18.7z"/>
		</g>
	</g>
	<g>
		<g>
			<path class="st0" d="M25,52.5c-7.2,0-13-5.9-13-13s5.9-13,13-13c7.2,0,13,5.9,13,13S32.2,52.5,25,52.5z M25,27.4
				c-6.6,0-12,5.4-12,12s5.4,12,12,12s12-5.4,12-12S31.7,27.4,25,27.4z"/>
		</g>
	</g>
	<g>
		<g>
			<path class="st0" d="M82.9,52.5c-7.2,0-13-5.9-13-13s5.9-13,13-13c7.2,0,13,5.9,13,13S90.1,52.5,82.9,52.5z M82.9,27.4
				c-6.6,0-12,5.4-12,12s5.4,12,12,12s12-5.4,12-12S89.6,27.4,82.9,27.4z"/>
		</g>
	</g>
	<g>
		<g>
			<path class="st0" d="M82.9,63.3c-13.1,0-23.8-10.7-23.8-23.8s10.7-23.8,23.8-23.8s23.8,10.7,23.8,23.8
				C106.8,52.6,96.1,63.3,82.9,63.3z M82.9,18.7c-11.5,0-20.8,9.3-20.8,20.8s9.3,20.8,20.8,20.8s20.8-9.3,20.8-20.8
				S94.4,18.7,82.9,18.7z"/>
		</g>
	</g>
	<g>
		<g>
			<path class="st0" d="M60.6,41c-0.2,0-0.4,0-0.6-0.1c-6.4-3-11.9-0.1-11.9,0c-0.7,0.4-1.6,0.1-2-0.6s-0.1-1.6,0.6-2
				c0.3-0.1,6.9-3.6,14.6,0c0.8,0.4,1.1,1.2,0.7,2C61.7,40.7,61.2,41,60.6,41z"/>
		</g>
	</g>
	<g>
		<g>
			<path class="st0" d="M100.1,26c-0.7,0-1.3-0.3-1.8-0.7c-1.1-1.1-1-2.9,0.3-4.2l2.6-2.6c1.2-1.2,3.1-1.3,4.2-0.3
				c1.1,1.1,1,2.9-0.3,4.2l-2.7,2.6C101.8,25.7,100.9,26,100.1,26z"/>
		</g>
	</g>
	<g>
		<g>
			<path class="st0" d="M8,26c-0.8,0-1.7-0.4-2.4-1L3,22.4c-1.2-1.3-1.4-3.1-0.3-4.2c1-1,3-0.9,4.2,0.3l2.6,2.6
				c1.2,1.3,1.4,3.1,0.3,4.2C9.3,25.8,8.7,26,8,26z"/>
		</g>
	</g>
</g>
</svg>
